Coordinates
version=1
nRows=65
nColumns=12
inDegrees=yes

Units are S.I. units (second, meters, Newtons, ...)
Angles are in degrees

endheader
time	SC_y	SC_z	SC_x	AC_y	AC_z	AC_x	GH_y	GH_z	GH_yy	EL_x	PS_y
       0.0              -56.54          37.88          24.31          43.97         -8.524          14.48          125.8          68.61          93.41          104.0          155.6
   0.01862              -56.53          37.88          24.32          43.97         -8.525          14.48          125.7           68.6          93.39          104.0          155.6
   0.03724              -56.53          37.88          24.33          43.97         -8.526          14.48          125.7           68.6          93.38          104.1          155.6
   0.05586              -56.52          37.87          24.33          43.98         -8.528          14.48          125.7          68.59          93.36          104.1          155.6
   0.07447              -56.51          37.87          24.34          43.98         -8.529          14.48          125.7          68.58          93.35          104.1          155.6
   0.09309              -56.51          37.87          24.35          43.99         -8.531          14.49          125.7          68.57          93.33          104.1          155.6
    0.1117               -56.5          37.87          24.36          43.99         -8.533          14.49          125.7          68.57          93.31          104.1          155.6
    0.1303              -56.49          37.87          24.37           44.0         -8.534          14.49          125.6          68.56          93.29          104.1          155.6
    0.1489              -56.48          37.86          24.38           44.0         -8.536          14.49          125.6          68.55          93.27          104.1          155.5
    0.1676              -56.47          37.86          24.39          44.01         -8.539          14.49          125.6          68.54          93.24          104.1          155.5
    0.1862              -56.46          37.86           24.4          44.01         -8.541          14.49          125.6          68.53          93.22          104.1          155.5
    0.2048              -56.45          37.85          24.42          44.02         -8.543          14.49          125.5          68.52          93.19          104.1          155.5
    0.2234              -56.44          37.85          24.43          44.03         -8.546          14.49          125.5           68.5          93.16          104.1          155.5
     0.242              -56.43          37.85          24.44          44.04         -8.549           14.5          125.5          68.49          93.13          104.1          155.5
    0.2607              -56.41          37.84          24.46          44.04         -8.552           14.5          125.4          68.48           93.1          104.2          155.4
    0.2793               -56.4          37.84          24.48          44.05         -8.556           14.5          125.4          68.46          93.06          104.2          155.4
    0.2979              -56.38          37.83           24.5          44.06         -8.559           14.5          125.3          68.44          93.02          104.2          155.4
    0.3165              -56.36          37.83          24.52          44.07         -8.563           14.5          125.3          68.42          92.98          104.2          155.4
    0.3351              -56.34          37.82          24.54          44.09         -8.568          14.51          125.3           68.4          92.93          104.2          155.3
    0.3538              -56.32          37.82          24.57           44.1         -8.572          14.51          125.2          68.38          92.88          104.2          155.3
    0.3724               -56.3          37.81           24.6          44.11         -8.578          14.51          125.1          68.36          92.82          104.3          155.3
     0.391              -56.27           37.8          24.63          44.13         -8.583          14.52          125.1          68.33          92.76          104.3          155.2
    0.4096              -56.25          37.79          24.66          44.14          -8.59          14.52          125.0           68.3          92.69          104.3          155.2
    0.4282              -56.21          37.78           24.7          44.16         -8.597          14.52          124.9          68.27          92.62          104.3          155.2
    0.4468              -56.18          37.77          24.74          44.18         -8.605          14.53          124.8          68.23          92.53          104.4          155.1
    0.4655              -56.14          37.76          24.78          44.21         -8.614          14.53          124.7          68.19          92.44          104.4          155.0
    0.4841               -56.1          37.75          24.84          44.23         -8.624          14.54          124.6          68.15          92.33          104.4          155.0
    0.5027              -56.05          37.73          24.89          44.26         -8.635          14.55          124.5           68.1          92.21          104.5          154.9
    0.5213              -55.99          37.72          24.96           44.3         -8.647          14.55          124.4          68.04          92.08          104.5          154.8
    0.5399              -55.93           37.7          25.04          44.34         -8.661          14.56          124.2          67.97          91.92          104.6          154.7
    0.5586              -55.86          37.68          25.12          44.38         -8.678          14.57          124.0           67.9          91.75          104.7          154.6
    0.5772              -55.78          37.65          25.22          44.43         -8.696          14.58          123.8          67.81          91.55          104.7          154.5
    0.5958              -55.68          37.62          25.33          44.49         -8.718           14.6          123.6          67.71          91.31          104.8          154.4
    0.6144              -55.57          37.59          25.46          44.55         -8.743          14.61          123.3           67.6          91.04          104.9          154.2
     0.633              -55.44          37.55          25.62          44.63         -8.772          14.63          122.9          67.46          90.73          105.1          154.0
    0.6516              -55.29          37.51           25.8          44.72         -8.807          14.65          122.5           67.3          90.36          105.2          153.8
    0.6703              -55.11          37.45          26.01          44.83         -8.848          14.67          122.1          67.11          89.92          105.4          153.5
    0.6889              -54.89          37.39          26.27          44.96         -8.897           14.7          121.5          66.89          89.39          105.6          153.2
    0.7075              -54.63          37.31          26.59          45.12         -8.956          14.74          120.8          66.61          88.74          105.8          152.8
    0.7261              -54.31          37.22          26.97          45.32         -9.029          14.78          120.0          66.28          87.96          106.1          152.3
    0.7447              -53.91           37.1          27.44          45.55         -9.119          14.83          119.0          65.86           87.0          106.5          151.8
    0.7634              -53.42          36.95          28.03          45.85          -9.23           14.9          117.7          65.35          85.79          106.9          151.0
     0.782              -52.79          36.77          28.77          46.23         -9.371          14.98          116.1           64.7          84.27          107.5          150.1
    0.8006               -52.0          36.53          29.71          46.71          -9.55          15.09          114.1          63.87          82.34          108.2          149.0
    0.8192              -50.99          36.23          30.91          47.32          -9.78          15.22          111.5          62.82          79.87          109.2          147.5
    0.8378              -49.69          35.85          32.46           48.1         -10.07           15.4          108.2          61.46           76.7          110.4          145.6
    0.8564              -48.03          35.35          34.43           49.1         -10.45          15.62          103.9          59.73          72.66          111.9          143.1
    0.8751              -45.94          34.73          36.91          50.36         -10.92           15.9          98.56          57.55          67.57          113.8          140.0
    0.8937               -43.4          33.98          39.94           51.9          -11.5          16.23          92.03           54.9          61.36          116.2          136.3
    0.9123              -40.45           33.1          43.44          53.68         -12.16          16.63          84.46          51.82          54.17          118.9          132.0
    0.9309              -37.26          32.16          47.24           55.6         -12.89          17.05          76.27          48.49          46.39          121.9          127.3
    0.9495              -34.07          31.21          51.04          57.53         -13.61          17.48          68.07          45.16           38.6          124.8          122.6
    0.9682              -31.12          30.33          54.54          59.31         -14.28          17.87          60.51          42.08          31.41          127.6          118.2
    0.9868              -28.57          29.58          57.57          60.85         -14.85          18.21          53.98          39.43          25.21          129.9          114.5
     1.005              -26.49          28.96          60.05          62.11         -15.32          18.49          48.62          37.25          20.12          131.8          111.4
     1.024              -24.83          28.47          62.03          63.11          -15.7          18.71          44.36          35.52          16.07          133.4          109.0
     1.043              -23.53          28.08          63.57          63.89         -15.99          18.89          41.02          34.17           12.9          134.6          107.1
     1.061              -22.52          27.78          64.78           64.5         -16.22          19.02          38.43          33.11          10.43          135.5          105.6
      1.08              -21.72          27.55          65.72          64.98          -16.4          19.13          36.39          32.28          8.503          136.2          104.4
     1.098               -21.1          27.36          66.46          65.36         -16.54          19.21           34.8          31.63          6.985          136.8          103.5
     1.117              -20.61          27.21          67.04          65.65         -16.66          19.28          33.53          31.12           5.78          137.3          102.8
     1.136              -20.21           27.1          67.52          65.89         -16.75          19.33          32.51          30.71          4.814          137.6          102.2
     1.154              -19.89           27.0           67.9          66.09         -16.82          19.37          31.69          30.37          4.031          137.9          101.7
     1.173              -19.63          26.92          68.21          66.25         -16.88          19.41          31.01           30.1          3.391          138.2          101.3
     1.192              -19.41          26.86          68.47          66.38         -16.93          19.44          30.46          29.87          2.861          138.4          101.0
